# Blender v2.82 (sub 7) OBJ File: 'Wall.blend'
# www.blender.org
mtllib Wall.mtl
o Plane
v -1.000000 -0.006841 1.000000
v 0.384597 0.000000 0.447615
v -1.000000 0.000000 -1.000000
v 1.000000 0.000000 -1.000000
v -1.000000 0.000000 1.787241
v 0.445888 0.000000 2.194237
v -0.375207 0.000000 4.101942
v 1.000000 0.000000 3.786061
v -1.000000 0.000000 5.572595
v 0.541839 0.000000 6.077073
v -1.077960 0.000000 7.413031
v 1.000000 0.000000 7.413031
v -1.005277 3.011614 1.005047
v 0.379320 3.018455 0.452662
v -1.005277 3.018455 -0.994953
v 0.994723 3.018455 -0.994953
v -1.006578 2.570346 0.993201
v 0.378020 2.577187 0.440816
v -1.006578 2.577187 1.780442
v 0.439310 2.577187 2.187438
v -1.000000 3.098478 1.787241
v 0.445888 3.098478 2.194237
v -0.375207 3.098478 4.101942
v 1.000000 3.098478 3.786061
v -0.375207 3.449615 4.101942
v 1.000000 3.449615 3.786061
v -1.000000 3.449615 5.572595
v 0.541839 3.449615 6.077073
v -1.000000 2.798510 5.572595
v 0.541839 2.798510 6.077073
v -1.077960 2.798510 7.413031
v 1.000000 2.798510 7.413031
v 0.844032 0.000000 0.447615
v 1.196952 0.000000 1.619951
v 0.384597 1.584768 0.447615
v 0.445888 1.584768 2.194237
v 0.844032 1.584768 0.447615
v 1.196952 1.584768 1.619951
v -1.000000 0.000000 1.787241
v -0.375207 0.000000 4.101942
v -1.000000 0.000000 5.572595
v -0.578213 0.000000 -2.332740
v 0.437342 0.000000 -2.078767
v -1.000000 0.000000 -3.985547
v 1.000000 0.000000 -2.910394
v -0.496827 0.000000 -6.403589
v 0.373100 0.000000 -4.606729
v -1.000000 0.000000 -7.443666
v 1.000000 0.000000 -7.443666
v -1.000000 3.775544 -1.000000
v 1.000000 3.775544 -1.000000
v -0.578213 3.775544 -2.332740
v 0.437342 3.775544 -2.078767
v -0.578213 2.099330 -2.332740
v 0.437342 2.099330 -2.078767
v -1.000000 2.099330 -3.985547
v 1.000000 2.099330 -2.910394
v -1.000000 2.706017 -3.985547
v 1.000000 2.706017 -2.910394
v -0.496827 2.706017 -6.403589
v 0.373100 2.706017 -4.606729
v -0.496827 3.225964 -6.403589
v 0.373100 3.225964 -4.606729
v -1.000000 3.225964 -7.443666
v 1.000000 3.225964 -7.443666
v 1.000000 1.211390 -1.000000
v 0.437342 1.211390 -2.078767
v 1.000000 1.211390 -2.910394
v 0.384597 2.353759 0.447615
v 1.000000 2.353759 -1.000000
v 0.844032 2.353759 0.447615
v -1.297816 0.000000 -2.423879
v -0.578213 3.268381 -2.332740
v -1.000000 3.268381 -3.985547
v -1.297816 3.268381 -2.423879
v -1.000000 1.809219 -1.000000
v -0.578213 1.809219 -2.332740
v -1.297816 1.809219 -2.423879
v -1.634371 0.000000 -0.499198
v -0.993731 2.314754 1.007941
v -0.993731 2.321595 -0.992059
v -1.628103 2.321595 -0.491257
vt 0.000000 0.000000
vt 0.000000 0.000000
vt 0.000000 0.000000
vt 0.000000 0.000000
vt 0.000000 0.000000
vt 0.000000 0.000000
vt 0.000000 0.000000
vt 1.000000 0.000000
vt 0.000000 0.000000
vt 0.000000 0.000000
vt 1.000000 0.000000
vt 0.000000 0.000000
vt 0.000000 0.000000
vt 0.000000 0.000000
vt 0.000000 0.000000
vt 0.000000 0.000000
vt 0.000000 0.000000
vt 0.000000 0.000000
vt 0.000000 0.000000
vt 0.000000 0.000000
vt 1.000000 0.000000
vt 1.000000 1.000000
vt 0.000000 1.000000
vt 0.000000 0.000000
vt 0.000000 0.000000
vt 0.000000 0.000000
vt 1.000000 0.000000
vt 1.000000 0.000000
vt 0.000000 0.000000
vt 0.000000 0.000000
vt 1.000000 0.000000
vt 0.000000 0.000000
vt 1.000000 0.000000
vt 0.000000 0.000000
vt 0.000000 0.000000
vt 0.000000 0.000000
vt 1.000000 0.000000
vt 1.000000 0.000000
vt 1.000000 0.000000
vt 0.000000 0.000000
vt 0.000000 0.000000
vt 1.000000 0.000000
vt 1.000000 0.000000
vt 0.000000 0.000000
vt 0.000000 0.000000
vt 1.000000 0.000000
vt 0.000000 0.000000
vt 0.000000 0.000000
vt 0.000000 0.000000
vt 0.000000 0.000000
vt 0.000000 0.000000
vt 0.000000 0.000000
vt 0.000000 0.000000
vt 0.000000 0.000000
vt 0.000000 0.000000
vt 0.000000 0.000000
vt 0.000000 0.000000
vt 0.000000 0.000000
vt 0.000000 0.000000
vt 0.000000 0.000000
vt 0.000000 0.000000
vt 0.000000 0.000000
vt 0.000000 0.000000
vt 0.000000 0.000000
vt 0.000000 0.000000
vt 0.000000 0.000000
vt 0.000000 0.000000
vt 0.000000 0.000000
vt 0.000000 0.000000
vt 0.000000 0.000000
vt 0.000000 0.000000
vt 0.000000 0.000000
vt 0.000000 0.000000
vt 0.000000 0.000000
vt 0.000000 0.000000
vt 0.000000 0.000000
vt 0.000000 0.000000
vt 0.000000 0.000000
vt 0.000000 0.000000
vt 0.000000 0.000000
vt 0.000000 0.000000
vt 0.000000 0.000000
vt 0.000000 0.000000
vt 0.000000 0.000000
vt 0.000000 0.000000
vt 0.000000 0.000000
vt 0.000000 0.000000
vt 0.000000 0.000000
vt 0.000000 0.000000
vt 0.000000 0.000000
vt 0.000000 0.000000
vt 0.000000 0.000000
vt 0.000000 0.000000
vt 0.000000 0.000000
vt 0.000000 0.000000
vt 0.000000 0.000000
vt 0.000000 0.000000
vn 0.9203 0.0010 0.3912
vn 0.9994 0.0025 -0.0351
vn 0.2710 0.0000 -0.9626
vn -0.9204 0.0000 -0.3910
vn 0.9459 0.0000 -0.3244
vn -0.0017 1.0000 0.0017
vn -1.0000 -0.0017 -0.0000
vn 0.0000 0.0017 -1.0000
vn 0.3706 -0.0009 0.9288
vn -0.0026 1.0000 -0.0026
vn -0.2710 0.0018 0.9626
vn -1.0000 -0.0026 0.0000
vn -0.3705 -0.0034 -0.9288
vn 0.0000 1.0000 -0.0000
vn 0.9444 0.0000 -0.3288
vn 0.2239 0.0000 0.9746
vn -0.9654 0.0000 0.2606
vn -0.2239 0.0000 -0.9746
vn 0.9806 0.0000 0.1961
vn -0.3110 0.0000 0.9504
vn 0.0000 0.0000 1.0000
vn -0.9991 0.0000 -0.0423
vn 0.3110 0.0000 -0.9504
vn -0.9994 0.0000 0.0351
vn 0.6074 0.0000 0.7944
vn 0.0000 0.0000 -1.0000
vn 0.9576 0.0000 -0.2883
vn 0.2426 0.0000 -0.9701
vn -0.2426 0.0000 0.9701
vn 0.9380 0.0000 -0.3466
vn -0.9002 0.0000 0.4355
vn 0.8866 0.0000 -0.4625
vn -0.9534 0.0000 -0.3017
vn -0.9689 0.0000 0.2473
vn 0.4735 0.0000 -0.8808
vn 0.8282 0.0000 0.5604
vn -0.4735 0.0000 0.8808
vn -0.9790 0.0000 -0.2037
vn 0.9001 0.0000 -0.4358
vn 0.9764 0.0000 0.2158
vn -0.9001 0.0000 0.4358
vn 1.0000 0.0000 0.0000
vn -0.8282 0.0000 -0.5604
vn -0.8866 0.0000 0.4625
vn 0.9942 0.0000 0.1071
vn -0.9203 0.0000 -0.3912
vn -0.1256 0.0000 0.9921
vn -0.9823 0.0000 -0.1873
vn 0.9689 0.0000 -0.2473
vn -0.9788 0.0000 0.2047
vn 0.1256 0.0000 -0.9921
vn 0.9534 0.0000 0.3017
vn -0.9209 0.0012 0.3897
vn 0.0027 1.0000 0.0034
vn -0.6196 0.0044 -0.7849
vn 1.0000 -0.0027 -0.0000
usemtl None
s off
f 2/1/1 4/2/1 16/3/1 14/4/1
f 6/5/2 2/1/2 18/6/2 20/7/2
f 6/8/3 5/9/3 21/10/3 22/11/3
f 7/12/4 9/13/4 27/14/4 25/15/4
f 12/16/5 10/17/5 30/18/5 32/19/5
f 13/20/6 14/21/6 16/22/6 15/23/6
f 3/24/7 1/25/7 13/20/7 15/26/7
f 4/2/8 3/24/8 15/26/8 16/3/8
f 1/25/9 2/27/9 14/21/9 13/20/9
f 18/28/10 17/29/10 19/30/10 20/31/10
f 5/9/11 6/8/11 20/31/11 19/30/11
f 1/25/12 5/9/12 19/30/12 17/29/12
f 2/27/13 1/25/13 17/29/13 18/28/13
f 22/11/14 21/10/14 23/32/14 24/33/14
f 8/34/15 6/5/15 22/35/15 24/36/15
f 7/12/16 8/37/16 24/33/16 23/32/16
f 5/9/17 7/12/17 23/32/17 21/10/17
f 26/38/14 25/15/14 27/14/14 28/39/14
f 8/37/18 7/12/18 25/15/18 26/38/18
f 10/17/19 8/34/19 26/40/19 28/41/19
f 9/13/20 10/42/20 28/39/20 27/14/20
f 30/43/14 29/44/14 31/45/14 32/46/14
f 11/47/21 12/16/21 32/19/21 31/45/21
f 9/13/22 11/47/22 31/45/22 29/44/22
f 10/42/23 9/13/23 29/44/23 30/43/23
f 2/1/24 6/5/24 36/48/24 35/49/24
f 35/49/14 36/48/14 38/50/14 37/51/14
f 6/5/25 34/52/25 38/50/25 36/48/25
f 33/53/26 2/1/26 35/49/26 37/51/26
f 34/52/27 33/53/27 37/51/27 38/50/27
f 9/13/21 7/12/21 40/54/21 41/55/21
f 7/12/21 5/9/21 39/56/21 40/54/21
f 43/57/28 42/58/28 52/59/28 53/60/28
f 42/58/29 43/57/29 55/61/29 54/62/29
f 45/63/30 47/64/30 61/65/30 59/66/30
f 48/67/31 46/68/31 62/69/31 64/70/31
f 50/71/14 51/72/14 53/60/14 52/59/14
f 4/2/32 43/57/32 53/60/32 51/72/32
f 3/24/21 4/2/21 51/72/21 50/71/21
f 42/58/33 3/24/33 50/71/33 52/59/33
f 54/62/14 55/61/14 57/73/14 56/74/14
f 44/75/34 42/58/34 54/62/34 56/74/34
f 45/63/35 44/75/35 56/74/35 57/73/35
f 43/57/36 45/63/36 57/73/36 55/61/36
f 58/76/14 59/66/14 61/65/14 60/77/14
f 44/75/37 45/63/37 59/66/37 58/76/37
f 46/68/38 44/75/38 58/76/38 60/77/38
f 47/64/39 46/68/39 60/77/39 61/65/39
f 62/69/14 63/78/14 65/79/14 64/70/14
f 49/80/26 48/67/26 64/70/26 65/79/26
f 47/64/40 49/80/40 65/79/40 63/78/40
f 46/68/41 47/64/41 63/78/41 62/69/41
f 4/2/42 45/63/42 68/81/42 66/82/42
f 67/83/14 66/82/14 68/81/14
f 45/63/43 43/57/43 67/83/43 68/81/43
f 43/57/44 4/2/44 66/82/44 67/83/44
f 33/53/45 4/2/45 70/84/45 71/85/45
f 69/86/14 71/85/14 70/84/14
f 2/1/21 33/53/21 71/85/21 69/86/21
f 4/2/46 2/1/46 69/86/46 70/84/46
f 72/87/47 42/58/47 73/88/47 75/89/47
f 73/88/14 74/90/14 75/89/14
f 44/75/48 72/87/48 75/89/48 74/90/48
f 42/58/49 44/75/49 74/90/49 73/88/49
f 72/87/50 3/24/50 76/91/50 78/92/50
f 76/91/14 77/93/14 78/92/14
f 42/58/51 72/87/51 78/92/51 77/93/51
f 3/24/52 42/58/52 77/93/52 76/91/52
f 79/94/53 1/25/53 80/95/53 82/96/53
f 80/95/54 81/97/54 82/96/54
f 3/24/55 79/94/55 82/96/55 81/97/55
f 1/25/56 3/24/56 81/97/56 80/95/56
